<svg width="523" height="474" viewBox="0 0 523 474" fill="none" xmlns="http://www.w3.org/2000/svg">
<path fill-rule="evenodd" clip-rule="evenodd" d="M310.442 3.55168C308.636 6.21579 307.841 6.5159 306.365 5.09041C303.174 2.01153 300.702 2.94581 301.684 6.85988C302.485 10.0506 302.151 10.3988 298.291 10.3988C295.935 10.3988 293.793 11.0429 293.529 11.8314C293.211 12.7869 289.064 12.726 281.042 11.6474C263.691 9.31167 224.426 10.8561 207.185 14.5507C145.548 27.7623 90.9984 66.1145 58.2078 119.292L51.902 129.518L49.0818 123.145C44.9166 113.73 36.7858 108.781 25.4838 108.781C15.4913 108.781 9.18974 112.15 3.412 120.583C0.705051 124.532 0 127.382 0 134.381C0 142.128 0.533743 143.862 4.38604 148.64C8.62626 153.899 21.1869 165.151 29.5527 171.184L33.6202 174.119L30.6966 186.748C20.2851 231.713 24.2832 282.341 41.5485 324.144L45.7207 334.249L41.7863 337.158C36.4362 341.111 30.4375 353.557 30.4475 360.677C30.4659 374.032 37.9808 386.11 49.5518 391.378C56.8218 394.69 69.759 394.803 76.4443 391.615L81.4887 389.21L93.1277 400.709C124.243 431.448 163.028 452.172 208.266 462.231C220.28 464.902 226.609 465.349 252.714 465.375C279.14 465.399 285.114 464.979 298.019 462.184C333.535 454.496 364.11 440.485 393.7 418.337L398.065 415.071L403.297 418.157C416.252 425.8 432.674 419.725 438.819 405.016C441.876 397.702 441.563 392.76 437.542 384.817L434.074 377.967L442.628 365.18C458.71 341.14 470.163 314.207 476.252 286.106C479.421 271.479 482.326 239.692 481.172 232.276C480.461 227.718 480.521 227.666 490.819 223.844C507.218 217.755 516.236 211.731 519.94 204.387C523.675 196.982 523.972 190.698 520.934 183.428C513.515 165.672 492.335 161.087 479.177 174.388L474.061 179.56L470.141 167.528C467.983 160.91 463.964 150.561 461.206 144.527L456.194 133.561L460.283 130.467C462.531 128.765 468.616 123.189 473.804 118.076C484.57 107.468 486.531 102.087 483.617 91.1419C479.033 73.9171 458.677 66.3013 443.66 76.192C438.617 79.5129 432.517 89.5055 432.517 94.4458C432.517 95.9676 429.474 93.3233 424.557 87.5293C408.989 69.1806 379.86 46.4394 357.513 35.1884C343.202 27.9817 330.665 23.1956 328.388 24.069C326.007 24.9835 325.713 26.8351 327.75 28.0935C330.358 29.7059 329.201 31.6325 325.626 31.6325C322.851 31.6325 322.122 32.3204 322.251 34.8175C322.374 37.2141 322.575 37.3896 323.062 35.5253C323.5 33.8507 325.105 33.048 328.016 33.048C332.26 33.048 332.29 32.9971 330.052 29.5827C328.771 27.6278 328.356 25.7621 329.1 25.302C331.037 24.1058 357.276 36.0009 369.916 43.8064C391.69 57.2558 414.614 76.8063 413.133 80.6652C412.697 81.8019 410.443 84.6274 408.126 86.9447C404.575 90.4949 404.2 91.5028 405.736 93.353C407.234 95.1579 407.196 95.7793 405.526 96.8353C404.408 97.5431 402.746 98.1306 401.834 98.1433C400.921 98.1546 399.439 100.391 398.541 103.112C397.091 107.505 396.669 107.823 394.791 105.943C391.939 103.092 391.771 103.217 392.37 107.72C392.656 109.86 392.479 110.657 391.98 109.489C390.699 106.495 386.231 102.411 384.235 102.411C383.02 102.411 382.775 105.299 383.346 112.851L384.136 123.291L379.656 122.215C377.194 121.623 374.062 120.679 372.7 120.117C369.679 118.872 369.494 120.492 372.301 123.594C374.161 125.649 373.939 126.056 370.177 127.475C367.857 128.352 365.976 128.482 365.976 127.768C365.976 125.301 363.318 126.502 358.289 131.244C354.324 134.984 353.234 135.475 353.234 133.519C353.234 131.387 350.639 129.307 347.977 129.307C347.549 129.307 347.562 131.537 348.004 134.262C348.622 138.075 348.321 139.216 346.69 139.216C345.525 139.216 344.946 138.612 345.403 137.871C345.86 137.133 344.304 135.103 341.947 133.359C339.474 131.531 337.66 128.895 337.66 127.129C337.66 122.827 334.888 115.15 331.662 110.518C325.797 102.103 308.999 98.1447 299.718 102.993C294.586 105.674 288.628 112.131 286.783 117.013C284.182 123.895 284.705 128.633 290.248 148.417C290.831 150.5 289.891 151.997 286.7 154.08C282.694 156.693 282.39 157.457 282.757 163.989C283.106 170.236 283.55 171.123 286.533 171.544C288.392 171.807 290.427 171.188 291.057 170.169C291.686 169.151 292.704 168.82 293.32 169.435C293.934 170.05 292.94 171.681 291.111 173.061C288.363 175.134 287.955 176.35 288.767 180.043C289.613 183.896 289.358 184.515 286.923 184.515C285.369 184.515 282.791 186.267 281.192 188.408C278.383 192.173 278.286 192.196 278.243 189.115C278.218 187.363 277.719 185.926 277.136 185.92C275.239 185.903 269.415 176.218 270.372 174.671C271.889 172.215 267.247 168.633 263.916 169.691C261.728 170.384 261.158 171.428 261.743 173.663C262.309 175.827 261.479 177.536 258.837 179.642C256.53 181.481 254.948 184.342 254.63 187.247C254.143 191.692 254.296 191.857 258.004 190.927C262.305 189.849 263.987 187.932 264.019 184.077C264.03 182.669 264.653 181.894 265.402 182.357C266.27 182.895 266.256 184.534 265.363 186.884C264.591 188.911 264.292 190.9 264.696 191.305C265.101 191.709 264.721 192.895 263.855 193.94C261.958 196.226 263.638 196.359 271.463 194.541C274.562 193.822 276.438 193.836 275.981 194.575C275.551 195.27 274.085 195.839 272.722 195.839C271.36 195.839 269.008 196.75 267.496 197.864C264.796 199.852 264.803 199.94 267.934 202.873C269.686 204.515 271.119 207.075 271.119 208.561C271.119 210.822 269.907 211.333 263.688 211.691L256.256 212.118L255.891 220.388C255.571 227.642 255.876 228.749 258.367 229.4C262.252 230.416 261.935 234.333 257.669 238.042C255.723 239.735 254.13 242.382 254.13 243.926C254.13 245.471 252.502 247.802 250.51 249.106C248.519 250.41 244.987 254.245 242.658 257.628C239.293 262.52 238.603 264.72 239.289 268.383C239.761 270.916 239.58 274.523 238.885 276.398C236.78 282.072 238.442 285.734 247.221 294.76L255.614 303.388L264.24 302.752C268.986 302.402 275.075 301.389 277.773 300.498C282.166 299.049 282.897 299.192 284.77 301.865C286.312 304.064 287.77 304.622 290.317 303.984C293.524 303.178 294.042 303.682 294.121 307.67C294.128 308.059 293.735 310.081 293.245 312.161C292.574 315.022 293.269 317.031 296.095 320.389C301.065 326.295 302.943 336.229 300.121 341.686C297.308 347.123 297.471 350.593 300.85 357.215C302.408 360.267 303.682 364.232 303.682 366.027C303.682 367.822 304.972 371.695 306.547 374.636C308.124 377.577 309.642 381.942 309.921 384.337C310.493 389.251 312.931 391.339 317.12 390.504C318.683 390.192 322.279 389.567 325.109 389.114C328.875 388.511 332.01 386.417 336.79 381.307C340.383 377.466 343.323 373.065 343.323 371.526C343.323 369.974 344.582 368.331 346.155 367.832C348.346 367.137 348.986 365.69 348.986 361.432C348.986 357.107 349.772 355.387 352.66 353.389C362.135 346.83 363.713 342.38 360.106 332.403C357.607 325.495 359.491 321.436 370.06 310.96C380.051 301.056 384.38 294.501 384.38 289.273C384.38 286.632 383.801 286.405 379.071 287.203C376.152 287.696 372.7 288.388 371.404 288.741C370.107 289.093 368.68 288.79 368.232 288.068C367.786 287.345 371.077 285.304 375.546 283.533C380.016 281.761 384.477 279.694 385.458 278.941C386.44 278.186 389.307 276.468 391.829 275.119C399.606 270.963 403.956 259.54 397.762 259.54C396.723 259.54 395.498 258.933 395.04 258.193C394.543 257.387 398.159 256.856 404.023 256.875C413.599 256.904 413.964 257.04 418.942 262.421C421.819 265.53 424.891 267.612 425.984 267.191C427.322 266.679 428.227 268.07 428.905 271.684C429.444 274.564 432.136 281.332 434.884 286.724C439.703 296.178 439.976 296.44 442.57 294.093C445.156 291.752 445.258 291.828 445.258 296.126C445.258 299.193 445.938 300.592 447.426 300.592C450.736 300.592 451.498 296.727 448.954 292.844C444.699 286.353 446.019 280.812 453.723 272.803C463.13 263.025 466.604 262.262 471.641 268.866C474.763 272.958 475.505 275.382 475.417 281.206C475.356 285.192 474.634 288.678 473.813 288.952C472.99 289.226 472.625 290.253 473 291.232C473.938 293.673 464.994 320.547 458.742 334.076C452.521 347.538 442.867 363.4 433.69 375.234C426.577 384.407 425.977 385.527 428.174 385.527C428.901 385.527 429.899 384.252 430.393 382.695C431.483 379.261 433.312 379.038 434.523 382.19C435.658 385.15 435.366 385.393 429.991 385.982C426.587 386.355 421.956 389.929 410.251 401.215C381.017 429.404 346.926 448.46 308.318 458.194C267.878 468.39 221.097 466.591 181.218 453.303C166.228 448.309 141.84 437.044 142.597 435.464C142.888 434.859 144.003 432.604 145.076 430.454C146.831 426.942 146.751 426.323 144.302 424.35C142.365 422.789 142.089 421.941 143.346 421.417C144.32 421.012 145.116 419.587 145.116 418.25C145.116 416.913 145.907 415.029 146.874 414.062C148.273 412.663 148.202 412.033 146.52 410.97C144.752 409.852 144.833 409.631 147.019 409.613C148.454 409.601 149.93 408.477 150.298 407.114C150.664 405.752 152.995 403.681 155.474 402.513C159.061 400.823 159.928 399.602 159.72 396.528C159.575 394.404 159.894 392.728 160.428 392.803C163.684 393.263 165.446 391.698 170.587 383.787C173.739 378.938 175.971 374.069 175.548 372.966C174.414 370.012 178.804 365.895 184.814 364.277C190.757 362.678 192.614 359.504 194.468 347.769C195.192 343.194 197.025 338.81 199.392 335.998C201.466 333.534 203.162 330.663 203.162 329.618C203.162 326.541 201.551 323.241 200.049 323.241C199.282 323.241 197.034 321.967 195.054 320.41C193.074 318.853 189.878 317.579 187.953 317.579C183.778 317.579 170.6 311.775 170.6 309.935C170.6 306.307 163.125 299.23 158.345 298.334C155.528 297.805 152.131 296.345 150.797 295.09C144.309 288.98 142.081 287.85 137.612 288.404C135.017 288.727 131.812 288.111 130.292 286.998C126.479 284.211 122.536 284.542 116.801 288.132C111.605 291.384 103.195 292.421 100.139 290.187C98.9422 289.314 98.6492 287.233 99.2636 283.962C100.283 278.523 98.6279 276.585 92.9337 276.548C89.4325 276.526 89.4538 276.789 92.1791 266.972C92.9309 264.261 92.5175 263.787 89.3915 263.787C87.037 263.787 84.8865 265.057 83.3999 267.326C80.3419 271.993 75.1106 271.96 72.0271 267.255C69.9672 264.111 69.8836 262.653 71.3773 255.977C72.9785 248.829 73.4216 248.248 77.9478 247.399C80.6165 246.899 83.7426 246.851 84.895 247.293C86.046 247.734 87.9403 247.143 89.1041 245.979C92.7582 242.325 99.8568 245.192 101.764 251.092C102.642 253.807 104.301 256.001 105.475 256.001C107.13 256.001 107.532 254.372 107.294 248.622C106.997 241.383 107.111 241.155 113.311 236.703C116.788 234.207 119.632 231.308 119.632 230.26C119.632 226.784 125.947 218.589 129.897 216.94C132.112 216.014 133.79 214.209 133.79 212.75C133.79 209.862 138.152 207.976 142.004 209.198C145.35 210.26 156.442 204.865 156.442 202.177C156.442 199.765 154.209 199.387 152.86 201.571C151.399 203.934 147.756 200.085 148.685 197.16C149.184 195.593 148.524 194.073 146.948 193.157C145.551 192.344 144.908 191.659 145.52 191.635C146.131 191.612 148.202 192.622 150.121 193.879C152.041 195.136 153.611 195.517 153.611 194.725C153.611 193.932 155.588 192.596 158.007 191.753L162.403 190.221L160.13 193.688C158.88 195.594 157.858 197.682 157.858 198.328C157.858 199.891 169.627 203.004 170.845 201.765C172.378 200.202 170.44 193.008 168.485 193.008C167.22 193.008 166.899 191.241 167.383 186.951C167.981 181.652 167.539 180.368 163.849 176.688C161.25 174.095 159.265 170.312 158.671 166.82C156.772 155.662 156.52 155.351 152.983 159.786C151.144 162.092 149.145 163.314 148.183 162.718C145.821 161.26 146.142 157.619 148.63 157.619C149.968 157.619 148.984 155.822 145.917 152.664C143.27 149.939 140.134 147.71 138.946 147.71C136.117 147.71 134.687 145.322 136.967 144.403C137.945 144.009 137.332 143.636 135.603 143.575C133.47 143.498 132.707 144.097 133.224 145.443C133.641 146.532 133.303 147.844 132.47 148.358C131.639 148.872 130.958 148.58 130.958 147.71C130.958 146.839 130.321 146.521 129.543 147.002C127.483 148.275 127.81 150.541 130.054 150.541C131.346 150.541 131.758 151.707 131.305 154.08C130.44 158.603 129.108 158.559 126.628 153.924C125.54 151.893 121.611 148.494 117.897 146.372C111.305 142.609 110.486 140.632 115.518 140.632C116.89 140.632 119.264 142.224 120.795 144.171C123.622 147.763 126.711 148.872 126.711 146.294C126.711 145.516 125.717 144.879 124.504 144.879C123.291 144.879 122.692 144.239 123.174 143.457C123.657 142.676 125.607 142.427 127.505 142.904C131.433 143.889 131.859 142.547 128.941 138.381C126.662 135.128 127.406 133.315 132.02 130.886C133.773 129.963 135.206 128.347 135.206 127.296C135.206 123.73 138.749 118.693 141.585 118.226C144.4 117.765 144.4 117.77 141.577 120.112C139.224 122.064 139.164 122.328 141.223 121.682C143.897 120.841 144.778 124.228 142.284 125.768C139.091 127.742 141.034 129.495 145.361 128.546L149.855 127.559L146.423 131.912C144.537 134.307 142.037 136.15 140.869 136.007C137.925 135.648 135.206 137.57 135.206 140.008C135.206 141.334 136.704 142.047 139.488 142.047C142.682 142.047 144.092 142.894 145.037 145.38C146.486 149.19 158.55 157.234 157.558 153.726C157.392 153.143 158.029 151.273 158.974 149.571C160.191 147.377 160.279 145.398 159.274 142.755C157.338 137.663 157.498 136.767 159.785 139.894C161.632 142.421 161.876 142.374 165.754 138.779L169.798 135.03L165.121 130.205C161.954 126.938 160.977 125.049 162.097 124.358C165.119 122.49 162.295 115.641 156.088 109.782C154.726 108.497 153.611 106.364 153.611 105.044C153.611 100.243 151.818 98.2226 146.748 97.311C143.904 96.7985 140.821 95.7821 139.897 95.0503C137.679 93.295 133.672 95.5061 128.988 101.072C124.856 105.981 124.224 111.085 127.419 113.736C128.587 114.706 129.543 116.298 129.543 117.275C129.543 118.252 128.587 119.844 127.419 120.814C125.651 122.282 125.295 122.099 125.295 119.722C125.295 118.154 124.351 116.508 123.196 116.065C121.167 115.286 121.168 113.504 123.206 103.119C123.511 101.562 125.169 99.6509 126.889 98.8723C130.454 97.26 133.443 93.0996 132.044 91.701C131.529 91.1843 129.322 90.6648 127.139 90.5445C124.957 90.4242 122.428 89.8565 121.521 89.2804C119.438 87.9625 113.743 90.0717 111.237 93.0911C109 95.785 110.989 104.765 113.696 104.192C117.497 103.389 112.011 110.589 107.462 112.374C104.226 113.644 103.214 114.629 104.394 115.36C105.785 116.217 105.792 116.816 104.43 118.178C103.068 119.54 101.942 119.502 99.1319 117.998C97.1697 116.948 95.5642 115.528 95.5642 114.841C95.5642 114.135 96.551 114.148 97.8422 114.87C99.4788 115.786 101.127 115.214 103.685 112.843C106.971 109.796 107.087 109.29 105.162 106.33C103.463 103.716 103.381 102.213 104.726 98.2495C105.635 95.5726 107.13 93.1307 108.05 92.8236C110.118 92.1342 110.243 88.7439 108.244 87.5095C107.431 87.007 105.826 87.3764 104.675 88.332C101.82 90.7002 95.9875 91.1829 94.3438 89.1855C92.1211 86.486 91.7954 77.9982 93.8879 77.2763C94.9172 76.921 96.0923 77.9345 96.5114 79.5412C97.1994 82.1671 98.1848 82.4063 106.682 82.0015C114.472 81.6306 116.021 81.155 115.677 79.2425C114.955 75.2294 117.524 76.7398 119.264 81.3517C120.38 84.3046 121.619 85.5093 122.998 84.9799C124.132 84.5439 125.413 85.103 125.842 86.2213C127.178 89.7051 130.958 88.5938 130.958 84.7166C130.958 82.7702 130.279 81.1776 129.448 81.1776C128.617 81.1776 128.312 79.9942 128.771 78.5461C129.912 74.9505 126.041 71.7187 123.309 73.9851C121.784 75.2506 121.153 75.2096 120.585 73.8053C119.993 72.3388 119.58 72.36 118.493 73.9101C116.956 76.1028 113.261 74.4862 113.261 71.6225C113.261 68.6781 110.533 69.2599 108.846 72.5653C107.396 75.4035 107.185 75.4502 106.366 73.1145C105.875 71.7103 105.072 69.6761 104.583 68.5946C104.066 67.4536 104.295 67.0006 105.131 67.5173C105.921 68.0057 106.938 66.9893 107.392 65.2581C108.206 62.1466 108.24 62.1424 110.308 64.9197C112.355 67.6688 112.502 67.6277 117.078 63.088C120.823 59.3707 121.355 58.1957 119.748 57.1949C118.248 56.2592 120.751 53.9887 129.659 48.2046C165.01 25.2468 201.456 13.7552 243.716 12.2447C264.196 11.5115 289.669 13.1606 296.12 15.635C299.126 16.7887 298.337 18.7592 294.479 19.726C289.98 20.8557 289.993 22.2529 294.52 24.3154C297.976 25.8895 298.019 26.0692 295.773 29.4978C293.454 33.0353 293.461 33.048 298.022 33.048C302.137 33.048 302.528 33.4019 301.919 36.587C301.237 40.1556 303.983 41.6576 305.805 38.7103C307.274 36.335 309.159 37.115 311.156 40.9229L313.057 44.551L314.709 40.9229C316.596 36.7838 318.154 36.386 320.658 39.4026C321.621 40.5619 323.02 41.1324 323.769 40.6695C325.049 39.8782 318.862 35.8792 316.357 35.8792C315.72 35.8792 314.757 37.2707 314.218 38.9708C313.259 41.9874 313.186 41.9662 311.183 38.1413C309.21 34.3801 309.018 34.3206 306.404 36.6847C303.782 39.0572 303.682 39.009 303.682 35.3908C303.682 32.3261 303.029 31.6325 300.142 31.6325C296.335 31.6325 295.66 30.3103 298.179 27.792C300.161 25.8102 298.615 23.1489 295.458 23.1079C293.594 23.0824 293.848 22.4723 296.603 20.3532C299.436 18.1732 299.79 17.2757 298.373 15.8544C295.671 13.145 296.255 11.5879 299.788 12.0791C302.183 12.4118 303.086 11.7309 303.427 9.33714C303.925 5.82085 305.137 5.34239 307.514 7.71914C308.661 8.86576 309.544 8.42409 310.803 6.07282L312.523 2.85805L314.978 6.11387C316.609 8.27404 317.769 8.82754 318.428 7.76019C320.03 5.16827 321.855 5.90437 322.342 9.33714C322.683 11.7309 323.586 12.4118 325.98 12.0791C329.514 11.5879 330.097 13.145 327.396 15.8544C325.979 17.2757 326.333 18.1732 329.166 20.3532C333.12 23.3952 334.829 23.8171 334.829 21.7503C334.829 20.9873 333.236 19.9625 331.289 19.4741C327.232 18.4549 326.851 17.154 329.873 14.6456C333.192 11.8923 332.391 10.3988 327.597 10.3988C323.609 10.3988 323.279 10.0662 324.084 6.85988C325.064 2.95289 322.567 1.99596 319.462 5.09041C318.041 6.5074 317.188 6.20022 315.186 3.55168L312.686 0.24348L310.442 3.55168ZM403.541 3.16806C402.989 4.91063 401.159 6.8981 399.475 7.58749L396.414 8.83886L399.439 9.742C401.102 10.2389 403.137 12.0225 403.962 13.707L405.461 16.7689L406.377 13.7141C406.881 12.0352 408.669 10.2459 410.348 9.73916C413.196 8.88132 413.225 8.74684 410.773 7.76727C409.326 7.18829 407.333 5.20366 406.345 3.35775L404.548 0L403.541 3.16806ZM99.8115 14.0708C99.8115 15.3109 98.5373 16.6599 96.98 17.0662C93.609 17.9481 93.19 20.3079 96.4052 20.3079C97.6454 20.3079 98.9946 21.5819 99.4009 23.139C99.8087 24.6961 100.661 25.9702 101.297 25.9702C101.932 25.9702 102.857 24.6961 103.351 23.139C103.845 21.5819 105.162 20.3079 106.277 20.3079C107.393 20.3079 108.306 19.6708 108.306 18.8923C108.306 18.1137 107.393 17.4767 106.277 17.4767C105.162 17.4767 103.845 16.2027 103.351 14.6456C102.279 11.2708 99.8115 10.8688 99.8115 14.0708ZM172.084 41.3773C170.952 42.1431 169.52 42.456 168.898 42.0723C168.277 41.6887 166.973 41.8713 165.999 42.48C165.026 43.0873 163.382 43.713 162.349 43.8701C157.786 44.5609 156.428 45.9963 156.23 50.345C156.034 54.6271 155.972 54.6851 155.428 51.0966C154.712 46.3729 152.254 46.1265 148.371 50.3888C144.264 54.8975 142.801 58.435 142.469 64.6635C142.238 69.0093 142.735 70.2352 144.966 70.8184C148.023 71.6182 147.574 74.8132 144.226 76.0971C143.077 76.5374 142.5 76.3123 142.941 75.5974C143.385 74.8811 143.099 73.8959 142.307 73.4061C141.516 72.9177 140.869 73.5109 140.869 74.724C140.869 77.5254 137.511 77.5835 135.218 74.8231C134.256 73.6638 132.904 73.065 132.214 73.491C130.454 74.5782 130.641 79.7621 132.438 79.7621C133.355 79.7621 133.573 81.5995 133.011 84.5948C131.947 90.2685 134.154 92.0238 144.051 93.3813C148.704 94.0183 150.636 93.6715 152.069 91.9459C154.8 88.6561 151.66 85.4244 145.735 85.4244C143.15 85.4244 140.632 84.7718 140.14 83.9748C138.819 81.8373 151.153 83.9338 152.949 86.152C154.126 87.6029 154.89 87.6086 156.843 86.1817C158.181 85.2035 159.274 83.6322 159.274 82.6895C159.274 80.6171 162.769 76.9309 164.733 76.9309C165.51 76.9309 167.487 75.228 169.123 73.1471C170.76 71.0676 173.277 68.6781 174.717 67.8387C176.155 67.0006 178.527 65.5822 179.984 64.6862C182.322 63.2508 182.669 63.541 182.931 67.1634C183.182 70.633 182.703 71.2686 179.838 71.2686C173.509 71.2686 168.798 73.886 169.6 76.9564C170.005 78.4994 169.777 79.7621 169.096 79.7621C168.415 79.7621 168.102 80.559 168.403 81.5315C168.703 82.5054 169.331 85.0521 169.801 87.1938C170.504 90.4015 171.412 91.0867 174.967 91.0867C183.683 91.0867 184.538 92.5178 184.034 106.281C183.783 113.106 183.135 120.117 182.591 121.861C181.81 124.367 182.305 125.314 184.95 126.373C186.983 127.187 187.418 127.747 186.059 127.802C181.588 127.981 179.945 134.083 181.63 144.256C183.091 153.072 186.884 161.628 188.579 159.932C188.998 159.513 190.309 160.136 191.489 161.316C192.795 162.623 194.147 162.953 194.938 162.161C196.535 160.565 201.026 152.569 203.164 147.516C204.227 145.003 206.202 143.493 209.211 142.891C211.668 142.398 215.294 140.523 217.269 138.721C219.244 136.919 223.48 134.701 226.683 133.793C235.354 131.333 239.866 126.17 239.582 119.034C239.443 115.548 240.039 113.005 241.077 112.66C242.027 112.343 242.804 111.182 242.804 110.079C242.804 108.975 243.509 108.074 244.371 108.074C245.233 108.074 245.559 107.085 245.095 105.877C244.632 104.668 244.84 104.043 245.558 104.487C246.822 105.268 247.283 101.284 247.098 91.1546C246.987 85.1611 251.172 75.9782 256.111 71.3762C258.137 69.4878 259.793 67.4338 259.793 66.8109C259.793 65.0217 252.264 61.8012 249.529 62.4212C248.165 62.7298 247.051 62.2995 247.051 61.4629C247.051 60.6277 247.688 59.944 248.467 59.944C251.157 59.944 249.864 57.2317 244.86 52.3707C239.535 47.201 230.831 44.4533 228.179 47.1047C227.345 47.9385 225.285 48.6194 223.599 48.6194C221.913 48.6194 219.015 49.7985 217.157 51.2396C215.3 52.6807 212.985 53.5824 212.011 53.2441C211.038 52.9072 210.241 53.3984 210.241 54.3369C210.241 55.6477 209.75 55.6364 208.126 54.2888C206.962 53.3233 204.444 52.8321 202.53 53.1988C199.67 53.7452 198.901 53.1917 198.221 50.1001C197.756 47.9809 195.541 45.2418 193.154 43.8319C188.186 40.8988 175.048 39.3672 172.084 41.3773ZM139.453 55.073C139.453 56.2861 140.09 56.8863 140.869 56.405C141.647 55.9238 142.284 54.9314 142.284 54.1982C142.284 53.4649 141.647 52.8661 140.869 52.8661C140.09 52.8661 139.453 53.8598 139.453 55.073ZM126.39 59.3763C125.043 62.3321 125.021 63.3909 126.295 63.8156C127.215 64.1228 127.648 65.2057 127.258 66.2235C126.337 68.62 130.542 70.2579 131.914 68.0354C132.591 66.9412 133.255 67.5853 133.791 69.8601C134.249 71.7938 135.802 73.6043 137.244 73.8817C139.082 74.2356 139.626 73.76 139.062 72.2921C138.62 71.1412 138.905 69.5515 139.695 68.7616C140.666 67.7905 140.593 66.3212 139.47 64.2219C138.555 62.5147 137.438 61.487 136.987 61.9371C136.535 62.3887 135.456 61.3341 134.588 59.5943C132.25 54.9031 128.474 54.804 126.39 59.3763ZM345.334 58.8823C344.419 61.7573 344.065 63.8326 343.504 69.5826C343.404 70.6019 342.676 71.035 341.885 70.5466C341.093 70.0569 340.809 69.0688 341.253 68.3511C341.698 67.632 341.409 65.9248 340.612 64.5559C339.811 63.1814 339.142 62.8601 339.118 63.8368C339.096 64.8107 337.84 65.6063 336.328 65.6063C334.816 65.6063 333.159 66.2858 332.647 67.1167C331.107 69.6081 336.566 72.578 341.2 71.7683C343.536 71.3592 347.555 70.9982 350.13 70.9657C353.501 70.9218 354.604 70.3612 354.067 68.964C353.658 67.8953 353.78 67.0162 354.339 67.0105C356.126 66.9921 358.731 60.0091 357.286 59.1159C355.449 57.9806 351.832 61.1826 351.754 64.0095C351.719 65.2779 350.852 64.4031 349.827 62.0674C348.802 59.7317 348.232 57.3422 348.559 56.7589C348.886 56.1757 348.522 55.6973 347.749 55.6973C346.977 55.6973 345.89 57.1312 345.334 58.8823ZM352.289 56.6414C352.809 57.1595 353.658 57.1595 354.178 56.6414C354.696 56.1219 354.271 55.6973 353.234 55.6973C352.196 55.6973 351.771 56.1219 352.289 56.6414ZM193.252 58.5284C193.252 59.307 192.577 59.944 191.753 59.944C190.929 59.944 190.647 59.307 191.128 58.5284C191.61 57.7498 192.284 57.1128 192.628 57.1128C192.972 57.1128 193.252 57.7498 193.252 58.5284ZM120.458 66.8322C119.847 67.8188 119.731 69.0079 120.199 69.4751C121.466 70.742 122.847 68.8791 122.162 66.8265C121.684 65.3883 121.35 65.3883 120.458 66.8322ZM295.977 74.9222C294.467 76.0263 292.078 76.9309 290.67 76.9309C289.261 76.9309 288.035 77.7279 287.946 78.7004C287.56 82.8806 288.451 86.2397 290.335 87.7034C291.447 88.5684 292.356 89.8905 292.356 90.6422C292.356 91.3938 293.883 93.4436 295.752 95.1989L299.147 98.3882L300.124 92.6084C300.662 89.429 301.693 87.1938 302.415 87.6397C303.137 88.0856 303.359 89.0482 302.907 89.7787C301.671 91.7789 306.465 93.1166 308.299 91.2834C309.481 90.1014 308.815 88.5556 305.725 85.3069C303.154 82.6031 302.371 81.0375 303.682 81.2187C307.708 81.7764 308.896 81.1663 310.459 77.7349C311.888 74.5994 311.687 74.2342 308.209 73.6383C301.732 72.5299 298.834 72.8342 295.977 74.9222ZM370.187 85.9679C360.671 95.005 358.077 98.0824 358.002 100.421C357.955 101.904 357.546 106.141 357.093 109.833C356.381 115.628 356.685 116.84 359.313 118.68C362.379 120.829 368.807 121.629 368.807 119.864C368.807 119.342 367.748 117.743 366.454 116.314C361.737 111.101 365.606 97.311 373.299 91.9233C376.162 89.9188 376.424 85.3663 373.727 84.4688C372.93 84.2027 371.337 84.8779 370.187 85.9679ZM464.435 91.7308C468.675 95.969 468.779 98.0952 464.976 102.928C461.451 107.411 456.289 107.778 452.337 103.827C448.386 99.876 448.753 94.7148 453.236 91.19C458.07 87.3878 460.196 87.4911 464.435 91.7308ZM122.464 93.21C122.464 93.5993 122.145 93.9178 121.756 93.9178C121.367 93.9178 121.048 93.5993 121.048 93.21C121.048 92.8207 121.367 92.5022 121.756 92.5022C122.145 92.5022 122.464 92.8207 122.464 93.21ZM79.0918 97.1029C78.6685 101.822 76.978 106.658 75.752 106.658C75.1588 106.658 73.9129 105.741 72.9813 104.618C71.6321 102.993 71.9379 101.699 74.4905 98.2481C78.3004 93.0954 79.4769 92.8023 79.0918 97.1029ZM85.6538 101.703C85.6538 102.093 85.3353 102.411 84.946 102.411C84.5566 102.411 84.2381 102.093 84.2381 101.703C84.2381 101.314 84.5566 100.996 84.946 100.996C85.3353 100.996 85.6538 101.314 85.6538 101.703ZM321.989 104.484C327.562 107.366 333.026 114.243 335.016 120.877C337.267 128.393 335.161 135.138 327.23 145.807C320.309 155.12 303.952 173.19 302.443 173.19C301.041 173.19 291.619 148.764 288.791 137.801C284.671 121.827 288.471 110.32 299.689 104.792C305.556 101.9 316.694 101.747 321.989 104.484ZM401.37 104.535C401.37 104.924 401.051 105.242 400.662 105.242C400.272 105.242 399.954 104.924 399.954 104.535C399.954 104.145 400.272 103.827 400.662 103.827C401.051 103.827 401.37 104.145 401.37 104.535ZM438.18 104.535C438.18 104.924 437.861 105.242 437.472 105.242C437.082 105.242 436.764 104.924 436.764 104.535C436.764 104.145 437.082 103.827 437.472 103.827C437.861 103.827 438.18 104.145 438.18 104.535ZM444.277 113.627C448.056 120.064 446.249 118.914 441.667 111.966C439.484 108.657 438.603 106.698 439.709 107.611C440.814 108.524 442.87 111.232 444.277 113.627ZM86.4778 113.736C87.5821 113.736 88.4854 114.245 88.4854 114.867C88.4854 115.49 86.2612 115.739 83.5415 115.422C80.8218 115.105 78.9757 114.233 79.4372 113.485C79.8988 112.739 81.2211 112.489 82.3735 112.932C83.5259 113.374 85.3735 113.736 86.4778 113.736ZM395.235 117.511C394.716 118.029 394.291 117.605 394.291 116.567C394.291 115.529 394.716 115.105 395.235 115.623C395.753 116.142 395.753 116.992 395.235 117.511ZM303.928 119.843C297.603 126.577 301.943 136.385 311.249 136.385C317.143 136.385 321.142 132.283 321.142 126.237C321.142 117.491 310.02 113.361 303.928 119.843ZM315.6 118.842C318.264 119.864 318.584 122.21 316.07 122.277C315.097 122.304 311.752 123.537 308.637 125.017C303.758 127.335 302.907 127.413 302.495 125.571C301.359 120.487 309.281 116.417 315.6 118.842ZM449.506 122.229C450.34 123.786 450.702 125.06 450.313 125.06C449.923 125.06 448.924 123.786 448.09 122.229C447.256 120.672 446.894 119.398 447.283 119.398C447.672 119.398 448.672 120.672 449.506 122.229ZM387.212 124.353C387.212 124.742 386.893 125.06 386.504 125.06C386.115 125.06 385.796 124.742 385.796 124.353C385.796 123.963 386.115 123.645 386.504 123.645C386.893 123.645 387.212 123.963 387.212 124.353ZM30.9557 127.995C33.1261 129.701 34.6863 132.342 34.6863 134.31C34.6863 138.249 29.6589 143.463 25.8604 143.463C22.6438 143.463 16.2813 137.352 16.2813 134.262C16.2813 131.473 22.5178 125.06 25.2289 125.06C26.3276 125.06 28.9043 126.381 30.9557 127.995ZM354.649 127.892C354.649 129.449 355.219 130.723 355.914 130.723C357.505 130.723 358.99 127.041 357.855 125.907C356.152 124.203 354.649 125.133 354.649 127.892ZM399.954 131.431C399.954 131.82 399.635 132.138 399.246 132.138C398.857 132.138 398.538 131.82 398.538 131.431C398.538 131.041 398.857 130.723 399.246 130.723C399.635 130.723 399.954 131.041 399.954 131.431ZM46.9567 142.992C46.4371 143.51 46.0124 143.085 46.0124 142.047C46.0124 141.01 46.4371 140.585 46.9567 141.103C47.4749 141.623 47.4749 142.472 46.9567 142.992ZM232.01 142.332C231.602 142.992 231.675 145.387 232.173 147.652C233.32 152.875 239.243 154.554 245.361 151.39C250.041 148.971 251.6 146.242 249.887 143.469C248.592 141.374 233.208 140.394 232.01 142.332ZM342.852 143.89C342.852 145.111 341.493 145.535 338.84 145.146C336.634 144.822 334.829 143.992 334.829 143.303C334.829 142.612 336.634 142.047 338.84 142.047C341.191 142.047 342.852 142.81 342.852 143.89ZM116.801 147.07C120.829 149.103 125.607 154.04 127.95 158.587C129.921 162.413 129.993 171.79 128.13 181.845C126.129 192.634 119.406 214.242 118.047 214.242C116.226 214.242 89.8488 188.6 85.4287 182.533C75.6161 169.064 83.5288 148.63 99.9856 144.938C105.476 143.705 111.7 144.495 116.801 147.07ZM46.0124 145.586C46.0124 145.976 45.6938 146.294 45.3045 146.294C44.9152 146.294 44.5966 145.976 44.5966 145.586C44.5966 145.197 44.9152 144.879 45.3045 144.879C45.6938 144.879 46.0124 145.197 46.0124 145.586ZM337.66 147.002C337.66 147.391 337.342 147.71 336.952 147.71C336.563 147.71 336.244 147.391 336.244 147.002C336.244 146.613 336.563 146.294 336.952 146.294C337.342 146.294 337.66 146.613 337.66 147.002ZM43.3536 151.496C41.6844 154.366 41.2823 153.447 42.6485 149.888C43.1327 148.623 43.8293 147.885 44.1931 148.25C44.5584 148.614 44.1804 150.075 43.3536 151.496ZM41.7651 155.495C41.7651 155.885 41.4465 156.203 41.0572 156.203C40.6679 156.203 40.3493 155.885 40.3493 155.495C40.3493 155.106 40.6679 154.788 41.0572 154.788C41.4465 154.788 41.7651 155.106 41.7651 155.495ZM39.8779 159.979C39.3583 160.497 38.9336 160.072 38.9336 159.034C38.9336 157.997 39.3583 157.572 39.8779 158.09C40.3961 158.61 40.3961 159.459 39.8779 159.979ZM98.3957 161.865C96.8228 163.438 95.5642 166.584 95.5642 168.943C95.5642 171.303 96.8228 174.449 98.3957 176.021C104.523 182.148 115.385 177.624 115.385 168.943C115.385 163.495 110.924 159.034 105.475 159.034C103.114 159.034 99.9687 160.293 98.3957 161.865ZM111.745 162.674C112.968 163.898 113.969 166.511 113.969 168.483V172.068L108.964 167.675C106.212 165.259 103.345 163.281 102.593 163.281C101.842 163.281 101.227 162.644 101.227 161.865C101.227 159.608 109.299 160.229 111.745 162.674ZM38.4621 164.225C37.9425 164.743 37.5178 164.319 37.5178 163.281C37.5178 162.243 37.9425 161.819 38.4621 162.337C38.9803 162.856 38.9803 163.706 38.4621 164.225ZM324.535 164.136C324.065 164.606 322.843 164.657 321.822 164.248C320.692 163.796 321.028 163.461 322.677 163.393C324.169 163.332 325.005 163.666 324.535 164.136ZM316.596 167.174C314.961 168.537 313.097 172.199 312.452 175.313C311.59 179.482 310.657 180.867 308.913 180.564C307.611 180.337 305.256 180.841 303.679 181.685C301.611 182.792 300.13 182.782 298.354 181.645C296.153 180.238 296.207 180.138 298.858 180.688C301.788 181.296 306.14 176.83 305.33 174.046C304.635 171.66 312.683 164.697 316.138 164.697H319.57L316.596 167.174ZM508.642 171.422C517.283 175.374 522.624 186.226 521.06 196.652C519.728 205.533 513.419 212.261 501.181 217.85C489.604 223.137 468.049 230.423 467.022 229.397C465.912 228.286 470.439 195.948 472.833 187.895C478.059 170.311 492.095 163.853 508.642 171.422ZM317.839 171.067C317.839 171.456 317.521 171.774 317.132 171.774C316.742 171.774 316.424 171.456 316.424 171.067C316.424 170.677 316.742 170.359 317.132 170.359C317.521 170.359 317.839 170.677 317.839 171.067ZM306.513 173.19C306.513 173.969 307.15 174.606 307.929 174.606C308.708 174.606 309.345 173.969 309.345 173.19C309.345 172.412 308.708 171.774 307.929 171.774C307.15 171.774 306.513 172.412 306.513 173.19ZM296.603 176.188C296.603 176.967 295.966 177.21 295.187 176.729C294.409 176.248 293.771 175.217 293.771 174.439C293.771 173.66 294.409 173.417 295.187 173.898C295.966 174.379 296.603 175.41 296.603 176.188ZM489.202 186.198C483.13 192.714 488.057 202.917 497.276 202.917C502.018 202.917 507.552 197.58 507.552 193.008C507.552 191.661 506.231 188.88 504.617 186.829C500.827 182.011 493.387 181.706 489.202 186.198ZM503.367 186.713C506.091 189.994 505.631 197.336 502.563 199.579C496.614 203.928 487.731 199.993 487.731 193.008C487.731 191.798 488.724 189.391 489.936 187.662C492.568 183.903 500.567 183.338 503.367 186.713ZM376.557 205.28C373.895 207.941 373.915 208.135 377.302 212.44C378.859 214.42 380.153 217.069 380.178 218.326C380.203 219.583 381.158 221.849 382.302 223.359C383.445 224.871 384.38 226.622 384.38 227.252C384.38 229.054 379.522 228.59 376.686 226.516C374.619 225.006 374.415 224.067 375.652 221.757C376.924 219.38 376.59 218.313 373.732 215.629C368.51 210.723 367.885 207.164 371.739 204.256C375.761 201.223 379.765 202.072 376.557 205.28ZM348.278 204.333C347.797 205.111 346.645 205.738 345.717 205.727C344.704 205.713 344.879 205.157 346.155 204.333C348.874 202.575 349.364 202.575 348.278 204.333ZM339.579 207.848C340.146 209.327 341.6 209.702 344.505 209.122C347.77 208.469 349.619 209.184 353.405 212.567L358.183 216.837L345.13 216.522C337.95 216.35 331.693 215.824 331.224 215.356C329.872 214.004 334.696 205.748 336.838 205.748C337.902 205.748 339.135 206.693 339.579 207.848ZM302.519 210.367C303.547 211.351 306.142 213.276 308.283 214.647C310.424 216.017 312.176 217.833 312.176 218.684C312.176 220.422 305.762 216.671 301.912 212.682C298.218 208.854 298.763 206.779 302.519 210.367ZM298.482 217.483C305.808 224.21 306.444 225.566 302.266 225.566C298.613 225.566 298.629 227.867 302.294 229.829C304.748 231.141 305.502 230.749 307.603 227.07C310.769 221.523 313.354 220.586 314.367 224.618C314.808 226.378 316.466 228.627 318.05 229.616C320.495 231.144 321.213 231.028 322.807 228.849C324.087 227.099 324.232 225.738 323.263 224.571C321.744 222.741 322.802 219.904 325.002 219.904C325.735 219.904 326.334 221.45 326.334 223.34C326.334 227.962 332.646 232.891 337.124 231.767C339.625 231.14 340.492 231.508 340.492 233.199C340.492 234.451 341.447 235.475 342.615 235.475C343.783 235.475 344.739 234.52 344.739 233.352C344.739 232.184 345.376 231.229 346.155 231.229C347.95 231.229 347.937 232.586 346.094 237.872C344.746 241.737 344.04 242.116 337.994 242.207C334.352 242.262 328.585 241.361 325.182 240.206C318.319 237.876 315.008 238.445 315.008 241.955C315.008 243.778 314.175 244.067 311.129 243.302C308.995 242.767 306.87 241.715 306.407 240.965C305.943 240.216 303.717 239.108 301.46 238.505C298.292 237.657 297.287 236.505 297.052 233.447C296.885 231.268 296.398 229.136 295.972 228.71C295.545 228.283 290.256 228.692 284.219 229.616C270.968 231.648 262.007 232.731 266.872 231.711C271.479 230.747 275.366 227.21 275.366 223.981C275.366 222.572 276.641 220.738 278.198 219.904C279.755 219.07 281.03 217.455 281.03 216.316C281.03 215.115 282.372 214.233 284.215 214.221C285.968 214.208 288.356 213.581 289.524 212.826C290.692 212.072 291.697 211.445 291.757 211.432C291.816 211.421 294.843 214.144 298.482 217.483ZM290.239 218.455C289.282 222.816 290.132 225.566 292.439 225.566C293.173 225.566 293.771 223.018 293.771 219.904C293.771 213.276 291.576 212.375 290.239 218.455ZM190.774 235.059C187.085 238.935 186.87 239.722 189.496 239.722C190.545 239.722 191.979 240.931 192.682 242.408C193.881 244.926 194.208 244.838 197.942 240.992C200.536 238.319 201.214 236.891 199.885 236.891C198.762 236.891 196.971 235.726 195.902 234.302C194.043 231.825 193.823 231.857 190.774 235.059ZM31.1327 238.42C31.9199 241.083 33.078 244.058 33.708 245.031C34.338 246.004 34.5121 247.352 34.0959 248.026C33.6782 248.701 34.5971 250.393 36.136 251.784C37.675 253.177 38.9336 255.074 38.9336 256.001C38.9336 258.146 43.842 262.655 44.9591 261.536C45.422 261.075 44.591 257.728 43.1115 254.102C41.632 250.475 41.203 248.69 42.1558 250.134C43.1087 251.579 45.6613 255.037 47.8288 257.819C49.9949 260.6 51.674 263.878 51.558 265.102C51.1247 269.711 51.8892 270.585 60.2593 275.045C65.9308 278.067 69.9473 279.343 72.095 278.805C74.2654 278.26 76.1526 278.88 77.7723 280.669C79.1073 282.144 81.8865 283.773 83.9478 284.292C86.0092 284.808 89.8587 287.457 92.5005 290.178C98.332 296.182 103.997 298.698 105.711 296.047C106.65 294.594 107.175 294.655 108.285 296.345C110.632 299.921 109.888 304.941 106.395 309.091C102.313 313.942 100.286 325.689 103.126 328.04C104.171 328.903 106.805 332.796 108.981 336.689C113.683 345.103 118.015 350.137 120.554 350.137C121.569 350.137 123.4 351.665 124.623 353.532C126.504 356.402 126.704 360.07 125.918 377.243C124.713 403.523 125.099 415.666 127.175 416.986C128.411 417.772 128.383 418.047 127.065 418.063C126.092 418.075 125.37 418.562 125.462 419.146C125.883 421.802 125.168 423.747 123.772 423.747C121.303 423.747 105.637 411.141 93.4774 399.369L82.1866 388.44L86.6803 383.798C101.164 368.835 97.6114 344.523 79.3806 333.84C71.322 329.119 61.3522 327.973 53.1464 330.829C49.6736 332.036 46.7755 332.894 46.7089 332.734C46.641 332.574 45.742 330.531 44.7099 328.196C40.0053 317.545 33.0058 294.441 30.4107 281C26.5768 261.136 24.9458 231.993 27.7193 232.917C28.8108 233.281 30.3469 235.757 31.1327 238.42ZM322.795 234.06C323.276 234.838 324.587 235.475 325.71 235.475C326.832 235.475 327.75 234.838 327.75 234.06C327.75 233.281 326.437 232.644 324.835 232.644C323.232 232.644 322.313 233.281 322.795 234.06ZM38.4621 243.497C37.9425 244.016 37.5178 243.591 37.5178 242.553C37.5178 241.516 37.9425 241.091 38.4621 241.609C38.9803 242.129 38.9803 242.978 38.4621 243.497ZM40.3493 246.092C40.3493 246.482 40.0308 246.8 39.6414 246.8C39.2521 246.8 38.9336 246.482 38.9336 246.092C38.9336 245.703 39.2521 245.384 39.6414 245.384C40.0308 245.384 40.3493 245.703 40.3493 246.092ZM381.807 250.339C384.12 252.285 387.317 253.878 388.91 253.878C391.323 253.878 391.513 254.232 390.044 256.001C387.73 258.789 382.965 258.732 382.965 255.918C382.965 254.705 382.445 254.032 381.808 254.426C381.172 254.818 379.544 253.264 378.189 250.97C375.175 245.869 376.268 245.679 381.807 250.339ZM353.961 260.181C355.118 261.703 356.065 263.497 356.065 264.169C356.065 264.842 357.614 267.422 359.507 269.904C361.401 272.385 363.628 276.2 364.456 278.379C365.936 282.27 365.906 282.301 362.825 280.144C361.098 278.935 356.665 272.371 352.975 265.558C343.806 248.635 344.072 247.185 353.961 260.181ZM99.5779 260.493C94.6454 261.799 95.8021 264.558 101.282 264.558C104.394 264.558 107.804 265.59 109.367 267.005C112.233 269.598 117.537 270.277 118.812 268.215C119.45 267.184 104.106 259.198 102.466 259.704C102.174 259.795 100.875 260.149 99.5779 260.493ZM119.986 270.151C117.159 273.362 117.827 273.846 124.587 273.496C128.434 273.298 130.958 272.49 130.958 271.459C130.958 267.877 122.84 266.908 119.986 270.151ZM109.722 272.28C109.722 273.059 110.678 273.696 111.846 273.696C113.014 273.696 113.969 273.059 113.969 272.28C113.969 271.502 113.014 270.865 111.846 270.865C110.678 270.865 109.722 271.502 109.722 272.28ZM133.082 272.28C132.601 273.059 133.556 273.696 135.206 273.696C136.855 273.696 137.811 273.059 137.329 272.28C136.848 271.502 135.892 270.865 135.206 270.865C134.519 270.865 133.563 271.502 133.082 272.28ZM472.158 284.313C472.158 284.702 472.477 285.021 472.866 285.021C473.255 285.021 473.574 284.702 473.574 284.313C473.574 283.924 473.255 283.605 472.866 283.605C472.477 283.605 472.158 283.924 472.158 284.313ZM389.099 285.965C389.619 286.483 390.468 286.483 390.988 285.965C391.506 285.445 391.081 285.021 390.044 285.021C389.006 285.021 388.581 285.445 389.099 285.965ZM472.158 287.144C472.158 287.533 472.477 287.852 472.866 287.852C473.255 287.852 473.574 287.533 473.574 287.144C473.574 286.755 473.255 286.436 472.866 286.436C472.477 286.436 472.158 286.755 472.158 287.144ZM71.3829 331.702C94.1569 338.234 101.823 368.401 84.7704 384.39C72.0398 396.326 50.0884 395.072 39.1318 381.781C29.0232 369.519 29.6093 352.75 40.5603 340.871C48.851 331.878 60.2111 328.499 71.3829 331.702ZM376.667 341.413C376.186 342.93 373.901 344.953 371.592 345.91C369.281 346.867 367.309 348.051 367.209 348.539C367.108 349.029 366.802 351.022 366.528 352.968C366.253 354.915 365.643 358.772 365.171 361.541C364.114 367.754 366.999 371.023 371.445 368.643C374.916 366.786 380.455 352.797 380.677 345.326C380.852 339.444 378.134 336.791 376.667 341.413ZM60.9275 346.038C55.5731 350.737 54.2224 356.652 58.1568 358.161C61.0124 359.256 67.2107 354.656 70.542 348.966C75.3456 340.765 69.1007 338.861 60.9275 346.038ZM41.2087 353.792C40.7358 355.024 40.3493 359.069 40.3493 362.784C40.3493 371.613 44.683 378.144 53.4197 382.479C58.9355 385.215 61.3494 385.63 67.13 384.836C72.5608 384.088 73.9624 383.39 73.3324 381.748C72.7789 380.306 72.2041 380.133 71.5387 381.212C70.9992 382.082 68.2626 383.168 65.4565 383.624C59.2371 384.633 49.4782 380.258 45.3994 374.634C42.0426 370.003 40.6367 356.741 43.1794 353.679C44.1946 352.454 44.3333 351.553 43.5051 351.553C42.7151 351.553 41.6816 352.561 41.2087 353.792ZM72.2536 357.362C66.8992 362.062 65.5486 367.976 69.483 369.485C72.3386 370.581 78.5368 365.98 81.8681 360.291C86.6718 352.089 80.4268 350.185 72.2536 357.362ZM438.18 388.949C438.18 390.054 438.566 391.965 439.039 393.196C439.68 394.869 439.006 395.436 436.373 395.436C433.745 395.436 432.677 394.542 432.177 391.931C431.807 390.001 431.84 388.09 432.248 387.684C433.82 386.111 438.18 387.041 438.18 388.949ZM430.846 392.265C431.213 394.844 430.618 395.436 427.66 395.436C425.077 395.436 424.022 394.684 424.022 392.841C424.022 387.354 430.071 386.843 430.846 392.265ZM422.606 394.02C422.606 394.799 421.931 395.436 421.107 395.436C420.283 395.436 420.001 394.799 420.483 394.02C420.964 393.241 421.638 392.604 421.982 392.604C422.326 392.604 422.606 393.241 422.606 394.02ZM240.353 395.993C239.754 396.993 238.227 398.39 236.958 399.1C234.946 400.226 235.17 400.895 238.728 404.372C241.378 406.961 242.804 407.641 242.804 406.314C242.804 405.192 243.969 403.401 245.393 402.332C247.874 400.472 247.845 400.258 244.712 397.283C242.222 394.916 241.183 394.609 240.353 395.993ZM422.606 399.682C422.606 401.759 421.662 402.513 419.067 402.513C415.735 402.513 414.322 399.944 416.472 397.795C418.584 395.683 422.606 396.92 422.606 399.682ZM430.846 400.036C430.554 402.083 429.255 403.383 427.207 403.674C424.614 404.042 424.022 403.451 424.022 400.489C424.022 397.526 424.697 396.851 427.66 396.851C430.622 396.851 431.214 397.443 430.846 400.036ZM439.039 399.091C438.566 400.322 438.18 402.233 438.18 403.337C438.18 404.556 436.731 405.345 434.489 405.345C431.705 405.345 431.009 404.794 431.657 403.105C432.13 401.874 432.517 399.963 432.517 398.858C432.517 397.64 433.965 396.851 436.207 396.851C438.991 396.851 439.687 397.402 439.039 399.091ZM414.112 401.806C414.112 402.195 413.793 402.513 413.404 402.513C413.014 402.513 412.696 402.195 412.696 401.806C412.696 401.416 413.014 401.098 413.404 401.098C413.793 401.098 414.112 401.416 414.112 401.806ZM414.112 407.468C414.112 411.082 412.179 412.192 410.53 409.523C409.353 407.618 410.751 403.929 412.652 403.929C413.455 403.929 414.112 405.522 414.112 407.468ZM420.483 407.567C420.483 409.048 419.367 410.475 418.005 410.738C415.513 411.218 414.417 406.926 416.501 404.843C418.173 403.17 420.483 404.75 420.483 407.567ZM435.055 407.411C435.342 407.699 434.845 409.301 433.951 410.971C431.909 414.786 428.854 413.886 429.345 409.615L429.713 406.412L427.097 409.642C424.071 413.379 421.094 412.39 422.235 408.026C422.92 405.407 423.709 405.159 428.773 405.969C431.942 406.476 434.769 407.124 435.055 407.411ZM410.265 413.593C411.737 416.604 411.962 416.665 412.894 414.301C413.803 411.994 413.923 411.977 414.012 414.142C414.163 417.819 409.339 419.846 405.068 417.899C401.006 416.049 399.348 412.965 401.65 411.542C402.603 410.953 402.825 411.214 402.212 412.203C401.657 413.102 401.987 413.838 402.944 413.838C403.902 413.838 405.999 414.953 407.605 416.315C409.796 418.175 410.092 418.232 408.79 416.539C407.837 415.299 407.476 413.866 407.988 413.354C408.501 412.841 407.858 412.422 406.561 412.422C405.263 412.422 404.201 411.521 404.201 410.417C404.201 407.973 407.559 406.566 408.198 408.742C408.45 409.598 409.38 411.781 410.265 413.593ZM418.338 413.484C418.325 414.069 417.698 415.501 416.943 416.669C415.833 418.386 415.567 418.182 415.549 415.607C415.537 413.855 416.164 412.422 416.943 412.422C417.722 412.422 418.349 412.899 418.338 413.484ZM423.27 413.767C423.727 414.506 422.76 415.828 421.122 416.706C418.39 418.168 418.274 418.058 419.717 415.361C421.475 412.077 422.062 411.814 423.27 413.767ZM427.961 415.472C427.66 416.37 425.895 417.669 424.035 418.357C420.71 419.587 420.698 419.56 423.266 416.723C426.107 413.583 428.833 412.857 427.961 415.472ZM424.022 452.812C424.022 454.005 422.83 455.438 421.373 455.997C418.927 456.935 419.029 457.31 422.694 460.902C426.478 464.609 426.708 464.659 427.563 461.963C428.057 460.409 429.372 459.136 430.488 459.136C433.298 459.136 433.057 458.39 428.913 454.246C424.727 450.061 424.022 449.855 424.022 452.812ZM87.9191 460.105C87.4179 461.686 85.5873 463.672 83.853 464.518L80.6987 466.059L83.7539 466.974C85.433 467.478 87.2211 469.266 87.7251 470.945L88.6411 474L90.1404 470.938C90.9658 469.254 93.0003 467.464 94.6638 466.963C97.4911 466.11 97.5165 465.981 95.0574 464.998C93.6104 464.419 91.617 462.435 90.6288 460.589C88.8903 457.342 88.8011 457.326 87.9191 460.105Z" fill="#266A93"/>
</svg>
