<svg width="351" height="30" viewBox="0 0 351 30" fill="none" xmlns="http://www.w3.org/2000/svg">
<path d="M348.433 2.97074C334.577 3.91392 316.628 3.84465 300.698 3.97546C255.044 4.35033 209.436 4.69895 165.31 5.75109C120.39 6.82216 75.3157 8.31464 35.6807 11.1263C32.7757 11.3324 -8.66574 14.1506 5.9286 16.3682C8.56198 16.7683 16.7405 17.2592 18.9384 17.3702C34.6261 18.1618 50.3592 18.4651 65.4106 18.6382C117.141 19.2331 166.561 18.4042 217.323 18.4552C229.816 18.4678 279.452 18.622 293.617 18.7946C298.81 18.8579 306.573 18.2959 309.485 19.2085C312.185 20.0547 301.612 19.7817 297.261 19.9365C284.981 20.3735 272.248 20.6462 259.688 20.9806C246.339 21.336 232.737 21.5958 219.535 22.0058C212.332 22.2295 204.465 22.2988 198.509 22.8804C197.181 23.0102 199.126 23.6435 200.874 23.828C215.622 25.3838 231.507 25.9993 246.826 27.0809" stroke="#81D8F7" stroke-width="4" stroke-linecap="round"/>
</svg>
